HIERARCHY
ROOT hip
{
  OFFSET -0.186977 96.2815 0.227329
  CHANNELS 6 Xposition Yposition Zposition Zrotation Xrotation Yrotation
  JOINT abdomen
  {
    OFFSET 0 7.2397 0
    CHANNELS 6 Xposition Yposition Zposition Zrotation Xrotation Yrotation
    JOINT chest
    {
      OFFSET 0 16.546 0
      CHANNELS 6 Xposition Yposition Zposition Zrotation Xrotation Yrotation
      JOINT neck
      {
        OFFSET 0 34.2149 0
        CHANNELS 6 Xposition Yposition Zposition Zrotation Xrotation Yrotation
        JOINT head
        {
          OFFSET 0 6.2923 0
          CHANNELS 6 Xposition Yposition Zposition Zrotation Xrotation Yrotation
          End Site
          {
            OFFSET 0 21.2161 0
          }
        }
      }
      JOINT lCollar
      {
        OFFSET 4.0639 26.6115 -1.1234
        CHANNELS 6 Xposition Yposition Zposition Zrotation Xrotation Yrotation
        JOINT lShldr
        {
          OFFSET 14.1772 0 0
          CHANNELS 6 Xposition Yposition Zposition Zrotation Xrotation Yrotation
          JOINT lForeArm
          {
            OFFSET 26.1234 0 0
            CHANNELS 6 Xposition Yposition Zposition Zrotation Xrotation Yrotation
            JOINT lHand
            {
              OFFSET 27.7188 0 0
              CHANNELS 6 Xposition Yposition Zposition Zrotation Xrotation Yrotation
              JOINT lThumb1
              {
                OFFSET 2.2979 -0.4685 1.8313
                CHANNELS 6 Xposition Yposition Zposition Zrotation Xrotation Yrotation
                JOINT lThumb2
                {
                  OFFSET 5.2953 0 0
                  CHANNELS 6 Xposition Yposition Zposition Zrotation Xrotation Yrotation
                  JOINT lThumb3
                  {
                    OFFSET 3.0181 0 0
                    CHANNELS 6 Xposition Yposition Zposition Zrotation Xrotation Yrotation
                    End Site
                    {
                      OFFSET 2.6294 0 0
                    }
                  }
                }
              }
              JOINT lIndex1
              {
                OFFSET 9.3793 0.2991 2.5924
                CHANNELS 6 Xposition Yposition Zposition Zrotation Xrotation Yrotation
                JOINT lIndex2
                {
                  OFFSET 4.3461 0 0
                  CHANNELS 6 Xposition Yposition Zposition Zrotation Xrotation Yrotation
                  JOINT lIndex3
                  {
                    OFFSET 2.1666 0 0
                    CHANNELS 6 Xposition Yposition Zposition Zrotation Xrotation Yrotation
                    End Site
                    {
                      OFFSET 2.2048 0 0
                    }
                  }
                }
              }
              JOINT lMid1
              {
                OFFSET 9.4769 0.8376 0.2947
                CHANNELS 6 Xposition Yposition Zposition Zrotation Xrotation Yrotation
                JOINT lMid2
                {
                  OFFSET 4.772 0 0
                  CHANNELS 6 Xposition Yposition Zposition Zrotation Xrotation Yrotation
                  JOINT lMid3
                  {
                    OFFSET 2.8722 0 0
                    CHANNELS 6 Xposition Yposition Zposition Zrotation Xrotation Yrotation
                    End Site
                    {
                      OFFSET 2.0959 0 0
                    }
                  }
                }
              }
              JOINT lRing1
              {
                OFFSET 8.6586 1.0176 -1.7016
                CHANNELS 6 Xposition Yposition Zposition Zrotation Xrotation Yrotation
                JOINT lRing2
                {
                  OFFSET 4.5461 0 0
                  CHANNELS 6 Xposition Yposition Zposition Zrotation Xrotation Yrotation
                  JOINT lRing3
                  {
                    OFFSET 2.506 0 0
                    CHANNELS 6 Xposition Yposition Zposition Zrotation Xrotation Yrotation
                    End Site
                    {
                      OFFSET 2.2023 0 0
                    }
                  }
                }
              }
              JOINT lPinky1
              {
                OFFSET 7.6901 0.6618 -3.9096
                CHANNELS 6 Xposition Yposition Zposition Zrotation Xrotation Yrotation
                JOINT lPinky2
                {
                  OFFSET 3.2119 0 0
                  CHANNELS 6 Xposition Yposition Zposition Zrotation Xrotation Yrotation
                  JOINT lPinky3
                  {
                    OFFSET 1.924 0 0
                    CHANNELS 6 Xposition Yposition Zposition Zrotation Xrotation Yrotation
                    End Site
                    {
                      OFFSET 1.7829 0 0
                    }
                  }
                }
              }
            }
          }
        }
      }
      JOINT rCollar
      {
        OFFSET -4.0677 26.6109 -1.1234
        CHANNELS 6 Xposition Yposition Zposition Zrotation Xrotation Yrotation
        JOINT rShldr
        {
          OFFSET -14.1772 0 0
          CHANNELS 6 Xposition Yposition Zposition Zrotation Xrotation Yrotation
          JOINT rForeArm
          {
            OFFSET -26.1234 0 0
            CHANNELS 6 Xposition Yposition Zposition Zrotation Xrotation Yrotation
            JOINT rHand
            {
              OFFSET -27.7188 0 0
              CHANNELS 6 Xposition Yposition Zposition Zrotation Xrotation Yrotation
              JOINT rThumb1
              {
                OFFSET -2.2979 -0.4684 1.8313
                CHANNELS 6 Xposition Yposition Zposition Zrotation Xrotation Yrotation
                JOINT rThumb2
                {
                  OFFSET -5.2953 0 0
                  CHANNELS 6 Xposition Yposition Zposition Zrotation Xrotation Yrotation
                  JOINT rThumb3
                  {
                    OFFSET -3.0181 0 0
                    CHANNELS 6 Xposition Yposition Zposition Zrotation Xrotation Yrotation
                    End Site
                    {
                      OFFSET -2.6294 0 0
                    }
                  }
                }
              }
              JOINT rIndex1
              {
                OFFSET -9.3793 0.2991 2.5924
                CHANNELS 6 Xposition Yposition Zposition Zrotation Xrotation Yrotation
                JOINT rIndex2
                {
                  OFFSET -4.3461 0 0
                  CHANNELS 6 Xposition Yposition Zposition Zrotation Xrotation Yrotation
                  JOINT rIndex3
                  {
                    OFFSET -2.1666 0 0
                    CHANNELS 6 Xposition Yposition Zposition Zrotation Xrotation Yrotation
                    End Site
                    {
                      OFFSET -2.2048 0 0
                    }
                  }
                }
              }
              JOINT rMid1
              {
                OFFSET -9.4769 0.8376 0.2947
                CHANNELS 6 Xposition Yposition Zposition Zrotation Xrotation Yrotation
                JOINT rMid2
                {
                  OFFSET -4.772 0 0
                  CHANNELS 6 Xposition Yposition Zposition Zrotation Xrotation Yrotation
                  JOINT rMid3
                  {
                    OFFSET -2.8722 0 0
                    CHANNELS 6 Xposition Yposition Zposition Zrotation Xrotation Yrotation
                    End Site
                    {
                      OFFSET -2.0959 0 0
                    }
                  }
                }
              }
              JOINT rRing1
              {
                OFFSET -8.6586 1.0176 -1.7016
                CHANNELS 6 Xposition Yposition Zposition Zrotation Xrotation Yrotation
                JOINT rRing2
                {
                  OFFSET -4.5461 0 0
                  CHANNELS 6 Xposition Yposition Zposition Zrotation Xrotation Yrotation
                  JOINT rRing3
                  {
                    OFFSET -2.506 0 0
                    CHANNELS 6 Xposition Yposition Zposition Zrotation Xrotation Yrotation
                    End Site
                    {
                      OFFSET -2.2023 0 0
                    }
                  }
                }
              }
              JOINT rPinky1
              {
                OFFSET -7.6901 0.6618 -3.9096
                CHANNELS 6 Xposition Yposition Zposition Zrotation Xrotation Yrotation
                JOINT rPinky2
                {
                  OFFSET -3.2119 0 0
                  CHANNELS 6 Xposition Yposition Zposition Zrotation Xrotation Yrotation
                  JOINT rPinky3
                  {
                    OFFSET -1.924 0 0
                    CHANNELS 6 Xposition Yposition Zposition Zrotation Xrotation Yrotation
                    End Site
                    {
                      OFFSET -1.7829 0 0
                    }
                  }
                }
              }
            }
          }
        }
      }
    }
  }
  JOINT lThigh
  {
    OFFSET 8.7379 -0.0029 0.0005
    CHANNELS 6 Xposition Yposition Zposition Zrotation Xrotation Yrotation
    JOINT lShin
    {
      OFFSET 0 -46.6676 0
      CHANNELS 6 Xposition Yposition Zposition Zrotation Xrotation Yrotation
      JOINT lFoot
      {
        OFFSET 0 -40.1476 0
        CHANNELS 6 Xposition Yposition Zposition Zrotation Xrotation Yrotation
        JOINT lToes
        {
          OFFSET 0 -8.8846 14.2294
          CHANNELS 6 Xposition Yposition Zposition Zrotation Xrotation Yrotation
          End Site
          {
            OFFSET 0 0 6.296
          }
        }
      }
    }
  }
  JOINT rThigh
  {
    OFFSET -8.7379 0.0029 -0.0005
    CHANNELS 6 Xposition Yposition Zposition Zrotation Xrotation Yrotation
    JOINT rShin
    {
      OFFSET 0 -46.6676 0
      CHANNELS 6 Xposition Yposition Zposition Zrotation Xrotation Yrotation
      JOINT rFoot
      {
        OFFSET 0 -40.1476 0
        CHANNELS 6 Xposition Yposition Zposition Zrotation Xrotation Yrotation
        JOINT rToes
        {
          OFFSET 0 -8.8846 14.2294
          CHANNELS 6 Xposition Yposition Zposition Zrotation Xrotation Yrotation
          End Site
          {
            OFFSET 0 0 6.296
          }
        }
      }
    }
  }
}
MOTION
Frames:	4
Frame Time:	0.0333333
-0.186977 96.2815 0.227329 -3.72623 -3.51033 -5.44701 0 7.2397 8.88178e-16 2.21445 -0.656528 0.639821 2.22045e-16 16.546 -8.88178e-16 3.72525 0.561928 1.08648 0 34.2149 8.88178e-16 0.568935 36.8078 -0.210062 0 6.2923 0 -0.191618 -29.4012 1.27318 4.0639 26.6115 -1.1234 -8.85806 -1.58306 -11.8068 14.1772 -2.84217e-14 0 -79.7744 26.0289 7.03552 26.1234 -3.55271e-15 0 -0.0218488 0.000268569 -1.45308 27.7188 -3.55271e-15 0 -14.0527 -36.0067 -7.459 2.2979 -0.4685 1.8313 56.947 65.0174 -79.5516 5.2953 7.10543e-15 0 -27.675 7.84122 22.2588 3.0181 -8.88178e-16 -1.77636e-15 17.272 -4.93928 15.3632 9.3793 0.2991 2.5924 -2.63649 -1.04738 -2.11574 4.3461 -1.77636e-15 -1.77636e-15 -17.102 -0.250635 3.50508 2.1666 0 0 -10.0853 -0.171505 1.59762 9.4769 0.8376 0.2947 -10.2371 -4.66739 2.05214 4.772 -2.22045e-15 -2.22045e-16 -16.9204 -0.554354 4.33115 2.8722 0 0 -13.9586 -0.330256 4.98394 8.6586 1.0176 -1.7016 -15.8543 1.66978 3.41049 4.5461 1.77636e-15 -4.44089e-16 -20.8053 -0.515358 2.80615 2.506 -7.10543e-15 0 -11.0272 -0.0909125 2.44001 7.6901 0.6618 -3.9096 -20.5234 -10.1349 5.91909 3.2119 -1.77636e-15 0 -16.4945 -0.821794 5.66522 1.924 0 0 -11.2506 -0.324068 5.42064 -4.0677 26.6109 -1.1234 10.8263 -1.18134 9.33612 -14.1772 0 3.55271e-15 72.8677 37.3653 -7.65052 -26.1234 -7.10543e-15 0 0.100294 0.00585973 6.68904 -27.7188 3.55271e-15 0 12.8703 -23.6343 2.35592 -2.2979 -0.4684 1.8313 -57.048 62.8731 80.517 -5.2953 0 -3.55271e-15 31.6566 5.65549 -22.8133 -3.0181 0 0 -17.8811 -3.75349 -19.1443 -9.3793 0.2991 2.5924 1.90677 -1.02211 2.47284 -4.3461 0 8.88178e-16 17.1777 -0.199911 -3.15389 -2.1666 3.55271e-15 4.44089e-16 10.1222 -0.154422 -1.4342 -9.4769 0.8376 0.2947 9.61675 -4.58367 -1.54724 -4.772 -6.21725e-15 8.88178e-16 17.0113 -0.50551 -3.98219 -2.8722 -3.55271e-15 0 14.0524 -0.301262 -4.61231 -8.6586 1.0176 -1.7016 15.2158 1.80614 -2.80101 -4.5461 8.88178e-16 0 20.8643 -0.438573 -2.3812 -2.506 0 1.77636e-15 11.0717 -0.0779359 -2.07035 -7.6901 0.6618 -3.9096 20.0677 -9.94263 -5.1911 -3.2119 5.32907e-15 0 16.6124 -0.777686 -5.32301 -1.924 -7.10543e-15 0 11.3581 -0.309259 -5.09311 8.7379 -0.0029 0.0005 10.9441 -8.29901 24.4604 0 -46.6676 0 5.83364 17.8991 0.961977 0 -40.1476 0 -6.81757 -3.28594 8.00848 3.55271e-15 -8.8846 14.2294 0.0001 -4.96962e-17 -0 -8.7379 0.0029 -0.0005 2.71428 0.185451 -18.4328 8.88178e-16 -46.6676 0 -3.06058 12.4561 -9.43882 0 -40.1476 1.11022e-15 3.29079 -8.12603 -9.18999 -3.55271e-15 -8.8846 14.2294 9.93923e-17 9.93923e-17 -0 
0.0941396 96.1708 0.227418 -3.83427 -3.98015 -5.07229 8.88178e-16 7.2397 -1.77636e-15 2.51998 -0.209341 1.23129 -2.22045e-16 16.546 0 3.95667 1.47942 2.26268 0 34.2149 0 0.552978 36.4276 -0.366614 -8.88178e-16 6.2923 1.42109e-14 -0.17375 -30.35 0.41957 4.0639 26.6115 -1.1234 -9.28003 -1.63429 -11.4747 14.1772 -2.84217e-14 0 -78.7327 26.6405 5.69421 26.1234 7.10543e-15 0 -0.0333534 0.00063874 -2.21951 27.7188 0 0 -13.4147 -34.3849 -5.35031 2.2979 -0.4685 1.8313 79.7858 68.0047 -101.251 5.2953 0 -3.55271e-15 -27.4992 5.17913 17.5297 3.0181 8.88178e-16 -1.77636e-15 21.4382 -3.10543 15.2341 9.3793 0.2991 2.5924 3.9703 -0.698764 -4.91516 4.3461 0 0 -13.0515 -0.0313181 2.69096 2.1666 -2.66454e-15 0 -13.2358 -0.300902 2.22463 9.4769 0.8376 0.2947 -2.1966 -4.27187 5.12629 4.772 1.77636e-15 8.88178e-16 -16.2375 -0.503648 4.16083 2.8722 1.77636e-15 3.55271e-15 -13.6806 -0.31311 4.91423 8.6586 1.0176 -1.7016 -9.11109 2.11083 4.52165 4.5461 0 8.88178e-16 -18.4905 -0.407973 2.50537 2.506 7.10543e-15 0 -11.0801 -0.0923096 2.44716 7.6901 0.6618 -3.9096 -18.3073 -9.98655 9.36346 3.2119 3.55271e-15 0 -15.6106 -0.736428 5.36851 1.924 0 0 -14.8483 -0.607227 6.64234 -4.0677 26.6109 -1.1234 10.328 -1.22235 9.4326 -14.1772 0 -1.77636e-15 73.0084 36.1091 -8.15352 -26.1234 -3.55271e-15 3.55271e-15 0.100162 0.00584446 6.67962 -27.7188 0 1.77636e-15 13.466 -23.0332 2.3842 -2.2979 -0.4684 1.8313 -53.141 60.5035 75.3575 -5.2953 0 -7.10543e-15 37.1248 2.66544 -19.3595 -3.0181 -3.55271e-15 4.44089e-15 -9.56842 -7.23149 -13.9876 -9.3793 0.2991 2.5924 10.5188 -0.849574 0.928485 -4.3461 -8.21565e-15 1.33227e-15 18.1499 -0.254956 -3.32674 -2.1666 3.55271e-15 1.77636e-15 11.1189 -0.187771 -1.61206 -9.4769 0.8376 0.2947 15.243 -4.9038 -1.37883 -4.772 -1.77636e-15 0 22.5928 -0.955619 -5.23232 -2.8722 7.10543e-15 1.77636e-15 11.768 -0.180805 -4.08681 -8.6586 1.0176 -1.7016 21.2783 1.37012 -2.76443 -4.5461 3.55271e-15 0 28.6947 -0.821578 -3.2109 -2.506 7.10543e-15 1.77636e-15 13.5861 -0.140573 -2.35694 -7.6901 0.6618 -3.9096 14.467 -10.2691 -3.02307 -3.2119 1.77636e-15 1.77636e-15 21.8715 -1.34308 -6.94296 -1.924 -7.10543e-15 -3.55271e-15 15.8527 -0.65316 -6.51402 8.7379 -0.0029 0.0005 9.2889 -11.2241 18.0015 -1.77636e-15 -46.6676 0 8.35053 23.9759 -1.12308 -3.55271e-15 -40.1476 0 -6.54826 -6.65509 3.39183 0 -8.8846 14.2294 0.0001 -1.98785e-16 -0 -8.7379 0.0029 -0.0005 2.50744 0.681318 -18.5763 8.88178e-16 -46.6676 0 -2.89914 12.6732 -9.7154 0 -40.1476 -4.44089e-16 3.48486 -8.24443 -9.13022 0 -8.8846 14.2294 1.49089e-16 0 -9.54166e-15 
0.404324 96.1472 0.227507 -3.71551 -4.54225 -5.43087 -8.88178e-16 7.2397 -1.77636e-15 2.5637 0.358489 1.95439 0 16.546 -8.88178e-16 3.89368 2.64178 3.70541 -1.77636e-15 34.2149 0 0.572792 36.0665 -0.523015 8.88178e-16 6.2923 1.42109e-14 0.236405 -31.6711 -0.114007 4.0639 26.6115 -1.1234 -9.38998 -1.67183 -11.5732 14.1772 -2.84217e-14 -1.77636e-15 -77.5771 26.8776 4.2732 26.1234 7.10543e-15 0 -0.0420436 0.00102747 -2.7967 27.7188 1.42109e-14 1.77636e-15 -12.8414 -32.9714 -3.45989 2.2979 -0.4685 1.8313 107.412 66.5905 -128.227 5.2953 -7.10543e-15 5.32907e-15 -20.986 4.95698 12.1146 3.0181 0 0 28.3552 1.44375 14.7322 9.3793 0.2991 2.5924 13.1946 -0.241616 -6.74049 4.3461 0 0 -8.25113 0.153228 1.70972 2.1666 0 3.55271e-15 -16.5645 -0.474923 2.87865 9.4769 0.8376 0.2947 7.84957 -3.99403 7.54708 4.772 0 -1.77636e-15 -14.103 -0.358387 3.62506 2.8722 -5.32907e-15 -1.77636e-15 -13.1667 -0.282302 4.78515 8.6586 1.0176 -1.7016 0.277984 2.53765 7.92011 4.5461 0 1.77636e-15 -16.0561 -0.308268 2.18471 2.506 -4.88498e-15 -1.77636e-15 -11.3569 -0.0997314 2.48459 7.6901 0.6618 -3.9096 -14.7202 -9.89187 13.4076 3.2119 0 0 -14.272 -0.615962 4.91702 1.924 0 -3.55271e-15 -18.5189 -0.975249 7.87036 -4.0677 26.6109 -1.1234 9.99687 -1.24903 9.71538 -14.1772 -2.84217e-14 -1.77636e-15 72.6636 35.2648 -7.88693 -26.1234 0 -3.55271e-15 0.0949069 0.00524022 6.328 -27.7188 0 3.55271e-15 14.2799 -21.6924 1.84984 -2.2979 -0.4684 1.8313 -49.5132 57.5306 70.3988 -5.2953 -7.10543e-15 3.55271e-15 43.0784 -0.692956 -15.1775 -3.0181 3.55271e-15 2.22045e-16 -0.0857461 -10.9461 -7.92507 -9.3793 0.2991 2.5924 14.4739 -0.54582 -0.129483 -4.3461 -8.88178e-16 -8.88178e-16 19.329 -0.32565 -3.5351 -2.1666 7.10543e-15 -3.55271e-15 12.5997 -0.243027 -1.8752 -9.4769 0.8376 0.2947 17.0591 -5.02041 -0.983455 -4.772 0 1.77636e-15 27.6983 -1.47295 -6.33465 -2.8722 0 -3.55271e-15 8.99415 -0.0629014 -3.44318 -8.6586 1.0176 -1.7016 24.6442 1.09314 -1.994 -4.5461 -3.55271e-15 0 34.6638 -1.18773 -3.80432 -2.506 -1.42109e-14 3.55271e-15 15.362 -0.192373 -2.5576 -7.6901 0.6618 -3.9096 7.62971 -10.422 -1.46814 -3.2119 3.55271e-15 0 26.5541 -1.97145 -8.34081 -1.924 0 0 20.25 -1.09728 -7.87681 8.7379 -0.0029 0.0005 6.77456 -12.5963 11.318 0 -46.6676 -3.55271e-15 9.54788 26.9815 -4.02382 0 -40.1476 1.77636e-15 -7.42217 -9.08666 -3.14258 1.77636e-15 -8.8846 14.2294 0.0001 9.93923e-17 -3.97569e-16 -8.7379 0.0029 -0.0005 2.24568 1.21894 -18.3135 -2.66454e-15 -46.6676 1.77636e-15 -3.24269 12.7458 -9.67752 0 -40.1476 -2.22045e-16 3.8914 -8.19488 -8.99412 -3.55271e-15 -8.8846 14.2294 9.93923e-17 -4.96962e-17 3.18055e-15 
0.681276 96.1735 0.227596 -3.35562 -4.98777 -6.78908 4.44089e-16 7.2397 0 2.21869 0.982088 2.65441 -1.11022e-16 16.546 1.77636e-15 3.34206 3.90372 5.11367 -8.88178e-16 34.2149 0 0.619923 35.7177 -0.609001 8.88178e-16 6.2923 -1.42109e-14 1.29037 -33.2943 0.408433 4.0639 26.6115 -1.1234 -9.02473 -1.70676 -12.1152 14.1772 0 -1.77636e-15 -76.2543 26.7273 3.32128 26.1234 7.10543e-15 3.55271e-15 -0.0551233 0.00175872 -3.66942 27.7188 0 0 -12.4547 -32.4882 -1.95587 2.2979 -0.4685 1.8313 126.435 61.296 -147.233 5.2953 0 8.88178e-16 -7.81049 5.16702 6.40518 3.0181 0 3.55271e-15 32.4297 7.6387 14.1454 9.3793 0.2991 2.5924 19.2056 -0.513532 -5.98351 4.3461 0 0 -9.15154 0.124895 1.89484 2.1666 7.10543e-15 0 -18.9692 -0.6242 3.34455 9.4769 0.8376 0.2947 13.3096 -3.95557 8.6753 4.772 -7.10543e-15 0 -12.8782 -0.284117 3.31546 2.8722 3.55271e-15 0 -13.3624 -0.293892 4.83433 8.6586 1.0176 -1.7016 5.88645 2.75955 12.6952 4.5461 0 -3.55271e-15 -17.3601 -0.359986 2.35698 2.506 2.66454e-15 0 -12.875 -0.143656 2.68922 7.6901 0.6618 -3.9096 -14.6133 -10.2827 14.7015 3.2119 -1.44329e-15 3.55271e-15 -15.7685 -0.751339 5.42158 1.924 -3.55271e-15 0 -22.072 -1.4066 9.03693 -4.0677 26.6109 -1.1234 10.0074 -1.24269 10.3685 -14.1772 0 8.88178e-16 71.8171 34.9208 -6.46985 -26.1234 0 3.55271e-15 0.0881199 0.00451939 5.87357 -27.7188 -3.55271e-15 0 14.9481 -19.3475 0.585432 -2.2979 -0.4684 1.8313 -46.769 54.5191 66.4959 -5.2953 -7.10543e-15 -3.55271e-15 48.8201 -3.13335 -11.108 -3.0181 7.10543e-15 2.66454e-15 8.4609 -14.8709 -1.89341 -9.3793 0.2991 2.5924 10.4405 -0.0632877 -0.500756 -4.3461 -3.55271e-15 0 19.8393 -0.357571 -3.62485 -2.1666 7.10543e-15 -1.77636e-15 14.1324 -0.307383 -2.14601 -9.4769 0.8376 0.2947 12.3304 -4.72055 -0.639427 -4.772 -3.10862e-15 0 29.481 -1.67668 -6.70862 -2.8722 -7.10543e-15 0 5.74693 0.0353121 -2.68389 -8.6586 1.0176 -1.7016 21.2504 1.38408 -0.706149 -4.5461 0 -1.77636e-15 33.0264 -1.08115 -3.64535 -2.506 0 0 13.8155 -0.146918 -2.38296 -7.6901 0.6618 -3.9096 2.07321 -10.0351 -1.49208 -3.2119 -1.77636e-15 0 28.3535 -2.24351 -8.86481 -1.924 -7.10543e-15 0 23.272 -1.46326 -8.79384 8.7379 -0.0029 0.0005 4.56689 -12.6876 6.05855 1.77636e-15 -46.6676 0 9.0535 27.0064 -9.31108 -3.55271e-15 -40.1476 8.88178e-16 -8.71259 -10.6247 -6.18956 0 -8.8846 14.2294 0.0001 -1.98785e-16 -3.18055e-15 -8.7379 0.0029 -0.0005 1.81785 1.0767 -17.5193 -8.88178e-16 -46.6676 0 -4.13997 13.6463 -9.50884 1.77636e-15 -40.1476 0 4.5864 -8.42635 -8.37756 3.55271e-15 -8.8846 14.2294 9.93923e-17 -9.93923e-17 -1.27222e-14 
